<svg width="203" height="40" viewBox="0 0 203 40" fill="none" xmlns="http://www.w3.org/2000/svg">
<path d="M52.3527 15.8745V21.3424C52.3527 23.1 53.1555 23.9788 54.7612 23.9788C55.998 23.9788 56.8116 23.3929 57.2022 22.2212C57.3107 21.8524 57.4409 21.6028 57.5928 21.4726C57.7664 21.3424 58.0376 21.2774 58.4064 21.2774H65.0461C65.2414 21.2774 65.4041 21.3533 65.5343 21.5052C65.6862 21.6354 65.7621 21.7981 65.7621 21.9934C65.7621 23.8811 65.2197 25.4651 64.1348 26.7453C62.1385 29.1321 59.0248 30.3255 54.7937 30.3255C51.4739 30.3255 48.8267 29.5986 46.8522 28.1448C44.8777 26.6693 43.8904 24.4127 43.8904 21.375V15.842C43.8904 12.8693 44.8994 10.6344 46.9173 9.13725C48.9352 7.64008 51.5607 6.8915 54.7937 6.8915C59.0248 6.8915 62.1385 8.0849 64.1348 10.4717C65.2197 11.7519 65.7621 13.3358 65.7621 15.2236C65.7621 15.4189 65.6862 15.5924 65.5343 15.7443C65.4041 15.8745 65.2414 15.9396 65.0461 15.9396H58.4064C58.0593 15.9396 57.7989 15.8745 57.6253 15.7443C57.4734 15.6141 57.3324 15.3646 57.2022 14.9957C56.7899 13.824 55.9763 13.2382 54.7612 13.2382C53.1555 13.2382 52.3527 14.117 52.3527 15.8745ZM75.8215 20.366V29.1212C75.8215 29.3599 75.7347 29.566 75.5611 29.7396C75.3875 29.9132 75.1814 30 74.9427 30H68.596C68.3573 30 68.1512 29.9132 67.9776 29.7396C67.804 29.566 67.7172 29.3599 67.7172 29.1212V7.77027C67.7172 7.53159 67.804 7.32546 67.9776 7.15188C68.1512 6.97829 68.3573 6.8915 68.596 6.8915H74.9427C75.1814 6.8915 75.3875 6.97829 75.5611 7.15188C75.7347 7.32546 75.8215 7.53159 75.8215 7.77027V14.7679C77.0583 13.4226 78.6422 12.75 80.5734 12.75C82.5045 12.75 84.0993 13.3792 85.3578 14.6377C86.6163 15.8962 87.2455 17.7297 87.2455 20.1382V29.0887C87.2455 29.3274 87.1588 29.5335 86.9852 29.7071C86.8116 29.8807 86.6054 29.9675 86.3668 29.9675H79.9875C79.7488 29.9675 79.5427 29.8807 79.3691 29.7071C79.1955 29.5335 79.1087 29.3274 79.1087 29.0887V20.366C79.1087 19.1726 78.5554 18.5759 77.4488 18.5759C76.3639 18.5759 75.8215 19.1726 75.8215 20.366ZM89.2085 25.1505C89.2085 22.2212 91.5845 20.3443 96.3364 19.5198L99.7864 18.9665C99.7864 18.3156 99.7321 17.8816 99.6236 17.6646C99.5152 17.4259 99.2548 17.3066 98.8425 17.3066C98.4519 17.3066 98.0614 17.4802 97.6708 17.8274C97.2802 18.1745 96.9114 18.3481 96.5642 18.3481H91.0312C90.5538 18.3481 90.3151 18.1203 90.3151 17.6646C90.3151 17.1873 90.4779 16.6882 90.8034 16.1674C91.1505 15.625 91.6387 15.0934 92.268 14.5726C92.9189 14.0519 93.8194 13.6179 94.9694 13.2707C96.1411 12.9236 97.443 12.75 98.8751 12.75C101.783 12.75 103.963 13.3575 105.417 14.5726C106.871 15.7877 107.598 17.5236 107.598 19.7802V29.1212C107.598 29.3599 107.511 29.566 107.337 29.7396C107.164 29.9132 106.958 30 106.719 30H101.023C100.784 30 100.578 29.9132 100.405 29.7396C100.231 29.566 100.144 29.3599 100.144 29.1212V28.2099C99.1246 29.6203 97.6383 30.3255 95.6854 30.3255C93.7326 30.3255 92.1595 29.8373 90.9661 28.8608C89.7944 27.8627 89.2085 26.6259 89.2085 25.1505ZM97.7685 25.5085C99.1788 25.5085 99.884 24.6623 99.884 22.9698L97.9637 23.3929C97.009 23.6099 96.5317 24.0113 96.5317 24.5972C96.5317 24.8575 96.6402 25.0745 96.8571 25.2481C97.0741 25.4217 97.3779 25.5085 97.7685 25.5085ZM129.194 20.1382V29.1212C129.194 29.3599 129.107 29.566 128.933 29.7396C128.76 29.9132 128.554 30 128.315 30H122.098C121.86 30 121.654 29.9132 121.48 29.7396C121.307 29.566 121.22 29.3599 121.22 29.1212V20.366C121.22 19.1726 120.677 18.5759 119.592 18.5759C118.507 18.5759 117.965 19.1726 117.965 20.366V29.1212C117.965 29.3599 117.878 29.566 117.705 29.7396C117.531 29.9132 117.325 30 117.086 30H110.902C110.664 30 110.457 29.9132 110.284 29.7396C110.11 29.566 110.023 29.3599 110.023 29.1212V13.9542C110.023 13.7156 110.11 13.5094 110.284 13.3358C110.457 13.1623 110.664 13.0755 110.902 13.0755H116.598C116.837 13.0755 117.043 13.1623 117.216 13.3358C117.39 13.5094 117.477 13.7156 117.477 13.9542V15.0283C118.041 14.3557 118.8 13.8132 119.755 13.4009C120.732 12.967 121.773 12.75 122.88 12.75C124.659 12.75 126.156 13.3792 127.371 14.6377C128.586 15.8745 129.194 17.708 129.194 20.1382ZM150.792 20.1382V29.1212C150.792 29.3599 150.705 29.566 150.532 29.7396C150.358 29.9132 150.152 30 149.913 30H143.697C143.458 30 143.252 29.9132 143.078 29.7396C142.905 29.566 142.818 29.3599 142.818 29.1212V20.366C142.818 19.1726 142.275 18.5759 141.19 18.5759C140.106 18.5759 139.563 19.1726 139.563 20.366V29.1212C139.563 29.3599 139.476 29.566 139.303 29.7396C139.129 29.9132 138.923 30 138.684 30H132.5C132.262 30 132.056 29.9132 131.882 29.7396C131.708 29.566 131.622 29.3599 131.622 29.1212V13.9542C131.622 13.7156 131.708 13.5094 131.882 13.3358C132.056 13.1623 132.262 13.0755 132.5 13.0755H138.196C138.435 13.0755 138.641 13.1623 138.815 13.3358C138.988 13.5094 139.075 13.7156 139.075 13.9542V15.0283C139.639 14.3557 140.398 13.8132 141.353 13.4009C142.33 12.967 143.371 12.75 144.478 12.75C146.257 12.75 147.754 13.3792 148.969 14.6377C150.184 15.8745 150.792 17.708 150.792 20.1382ZM170.405 23.458H160.706V23.6208C160.706 24.9443 161.129 25.6061 161.975 25.6061C162.214 25.6061 162.507 25.4325 162.854 25.0854C163.201 24.7382 163.581 24.5646 163.993 24.5646H170.144C170.622 24.5646 170.86 24.8033 170.86 25.2807C170.86 26.3439 170.057 27.4505 168.452 28.6005C166.868 29.7505 164.709 30.3255 161.975 30.3255C159.263 30.3255 157.039 29.6203 155.303 28.2099C153.589 26.7778 152.731 24.8141 152.731 22.3189V20.7566C152.731 18.3915 153.61 16.4712 155.368 14.9957C157.125 13.4986 159.425 12.75 162.268 12.75C165.132 12.75 167.345 13.5854 168.907 15.2561C170.491 16.9269 171.283 19.0424 171.283 21.6028V22.5792C171.283 22.8179 171.197 23.0241 171.023 23.1976C170.849 23.3712 170.643 23.458 170.405 23.458ZM163.309 19.2594C163.309 17.9575 162.875 17.3066 162.007 17.3066C161.14 17.3066 160.706 17.9575 160.706 19.2594V19.3896H163.309V19.2594ZM180.092 30H174.266C174.028 30 173.821 29.9132 173.648 29.7396C173.474 29.566 173.388 29.3599 173.388 29.1212V7.77027C173.388 7.53159 173.474 7.32546 173.648 7.15188C173.821 6.97829 174.028 6.8915 174.266 6.8915H180.092C180.331 6.8915 180.537 6.97829 180.711 7.15188C180.884 7.32546 180.971 7.53159 180.971 7.77027V29.1212C180.971 29.3599 180.884 29.566 180.711 29.7396C180.537 29.9132 180.331 30 180.092 30ZM192.591 25.3132C192.591 25.0962 192.536 24.9226 192.428 24.7925C192.146 24.4453 191.104 24.109 189.303 23.7835C187.502 23.4363 186.038 22.8396 184.909 21.9934C183.803 21.1255 183.25 19.9212 183.25 18.3807C183.25 16.8401 183.987 15.5165 185.463 14.4099C186.938 13.3033 188.924 12.75 191.419 12.75C193.936 12.75 195.997 13.2707 197.603 14.3123C199.209 15.3538 200.011 16.4061 200.011 17.4693C200.011 17.708 199.935 17.9141 199.784 18.0877C199.653 18.2613 199.491 18.3481 199.295 18.3481H193.827C193.502 18.3481 193.101 18.1745 192.623 17.8274C192.146 17.4802 191.788 17.3066 191.549 17.3066C191.05 17.3066 190.801 17.4802 190.801 17.8274C190.801 18.0443 190.855 18.2179 190.963 18.3481C191.245 18.6736 192.428 18.9882 194.511 19.292C196.594 19.5957 198.145 20.2684 199.165 21.3099C200.207 22.3297 200.727 23.4689 200.727 24.7274C200.727 26.4849 199.935 27.8627 198.351 28.8608C196.767 29.859 194.522 30.358 191.614 30.358C190.074 30.358 188.707 30.1844 187.513 29.8373C186.32 29.4901 185.409 29.0561 184.779 28.5354C183.542 27.5156 182.924 26.5608 182.924 25.6712C182.924 25.4325 183 25.2264 183.152 25.0528C183.304 24.8792 183.488 24.7925 183.705 24.7925H189.368C189.672 24.7925 190.063 24.966 190.54 25.3132C191.039 25.6387 191.506 25.8014 191.94 25.8014C192.374 25.8014 192.591 25.6387 192.591 25.3132Z" fill="white"/>
<rect y="2.58984" width="34.4254" height="34.4254" rx="4.18364" fill="white"/>
<rect x="19.625" y="16.3574" width="6.73453" height="6.73453" fill="#5A00FF"/>
<path fill-rule="evenodd" clip-rule="evenodd" d="M19.6253 11.3066H7.83984V28.143H19.6253V23.0916H12.8926V16.3571H19.6253V11.3066Z" fill="#5A00FF"/>
</svg>
